<svg id="Layer_1" data-name="Layer 1" xmlns="http://www.w3.org/2000/svg" viewBox="0 0 112.1 122.88"><defs><style>.cls-1{fill:#001e5b;fill-rule:evenodd;}</style></defs><path class="cls-1" d="M55.85,0c20.92,13.23,39.76,19.51,56,18,2.85,57.24-18.29,90.77-55.77,104.85C19.89,109.69-1.51,77.61.08,17.15c19,1,37.7-3.11,55.77-17.15ZM34,46.1C43.87,35.22,55.25,29.31,63.78,39a9,9,0,0,1,5.91,2.42c3.51,3.3,4,9.47,2.45,14.37v4.28a5.54,5.54,0,0,1,2.11,3.58,10.35,10.35,0,0,1,.16,3.1,8.5,8.5,0,0,1-.8,2.94,3.79,3.79,0,0,1-2.8,2.24c-1.23,1.31-2.44,2.72-3.51,4.07a41.21,41.21,0,0,0-2.89,4,2.23,2.23,0,0,0-.17,2.13,10.07,10.07,0,0,1,.26,1c2.16.46,4.11.83,5.86,1.17C80.11,86.2,84,86.93,84.77,96.85c14.78-16.24,22.32-40.46,20.67-73.78-14.34,1.28-31-4.26-49.56-16v0c-16,12.42-32.52,16.08-49.37,15.19C5.6,56.9,13.2,81,27.31,96.82c.8-9.89,4.65-10.62,14.41-12.44,1.76-.33,3.74-.7,5.9-1.17.08-.29.17-.56.27-.82a2.28,2.28,0,0,0-.21-2.34,41.21,41.21,0,0,0-2.89-4c-1.07-1.35-2.28-2.76-3.51-4.07a3.79,3.79,0,0,1-2.8-2.24,8.6,8.6,0,0,1-.8-2.94,11,11,0,0,1,.16-3.1,5.55,5.55,0,0,1,2.08-3.56l-1.44-.86C38.1,55,39.22,47.53,34,46.12v0ZM82.25,99.46C81.91,89.24,78.78,88.65,69.9,87c-2-.37-4.28-.79-6.89-1.39a1.32,1.32,0,0,1-1-1.3,5.05,5.05,0,0,0-.25-1.4,4.42,4.42,0,0,1,.45-4.24,44.33,44.33,0,0,1,3.07-4.32c1.22-1.54,2.61-3.14,4-4.61a1.32,1.32,0,0,1,1.06-.41h0c.37,0,.69-.33.94-.82a5.48,5.48,0,0,0,.52-2,7.74,7.74,0,0,0-.12-2.31c-.21-1-.61-1.84-1.17-2a1.34,1.34,0,0,1-1-1.3V54.65h0a13.43,13.43,0,0,0-1.35-4.48,19,19,0,0,0-3.63-3.09l-.17-.13c-.33-.24-.66-.48-1-.69-5.27,3.42-7.83,2.62-12.08,3.33-3.86.64-7,2.07-8.62,4.69v6.65a1.32,1.32,0,0,1-1,1.3c-.53.16-.93,1-1.14,2a7.42,7.42,0,0,0-.12,2.31,5.48,5.48,0,0,0,.52,2c.25.49.57.82.94.82h.08a1.37,1.37,0,0,1,1,.41c1.42,1.48,2.81,3.09,4,4.62a41.14,41.14,0,0,1,3.07,4.32,4.55,4.55,0,0,1,.45,4.6,3.41,3.41,0,0,0-.25,1.05A1.33,1.33,0,0,1,49,85.61c-2.57.58-4.81,1-6.78,1.36-8.9,1.67-12,2.25-12.35,12.53a70.64,70.64,0,0,0,26.21,16.35A73.76,73.76,0,0,0,82.25,99.46Z" transform="translate(0 0)"/></svg>