<svg id="Layer_1" data-name="Layer 1" xmlns="http://www.w3.org/2000/svg" viewBox="0 0 122.88 88.06"><defs><style>.cls-1{fill:#001e5b;}</style></defs><path class="cls-1" d="M60,55.56a1.25,1.25,0,0,1-1.19-2.2c2.88-1.56,4.22-3.58,4.49-5.56a6.11,6.11,0,0,0-.42-3.1,7.07,7.07,0,0,0-1.86-2.62,6.67,6.67,0,0,0-6.12-1.58,5.53,5.53,0,0,0-2.47,1.36,10.15,10.15,0,0,0-2,2.71,1.25,1.25,0,1,1-2.22-1.16A12.54,12.54,0,0,1,50.76,40a8,8,0,0,1,3.57-2,9.19,9.19,0,0,1,8.39,2.15,9.66,9.66,0,0,1,2.52,3.55,8.56,8.56,0,0,1,.57,4.38c-.37,2.71-2.11,5.42-5.78,7.42Zm35.46,22.8h.86A1.41,1.41,0,0,0,97.76,77V74.67a1.41,1.41,0,0,0-1.41-1.41h-5.1a1.41,1.41,0,0,0-1.41,1.41V77a1.41,1.41,0,0,0,1.41,1.41h.87l-1.67,8.49H97.1l-1.61-8.49ZM9.85,88V50.4a7.91,7.91,0,0,1-5.43.25,6.44,6.44,0,0,1-3-2.09A6.69,6.69,0,0,1,0,45.18,8.54,8.54,0,0,1,2.1,38.87h0a1.59,1.59,0,0,1,.29-.29L51.21.47A1.79,1.79,0,0,1,53.52.38l32.55,25.3-.31.11a21.1,21.1,0,0,0-11.7,9.27c-9.22-7.41-19.37-15.42-21.31-16.93-3.93,3-38.11,29.3-38.11,30.42V88.06L9.85,88ZM80.22,3l14.69.6V23.48l-14.69-9.7V3ZM64.72,86.86c.66-8.57-1-8.2,6.15-10.89a69.24,69.24,0,0,0,11.45-5.09l6.14,16H64.72ZM86.58,66c.16-1.31-3.74-6.33-4.45-8.74-1.53-2.43-2.07-6.28-.4-8.85.66-1,.37-2.84.37-4.24,0-14,24.47-14,24.47,0,0,1.77-.4,3.11.55,4.5,1.61,2.32.78,6.43-.57,8.59-.87,2.53-5,7.31-4.67,8.74.24,7.17-15.34,6.93-15.3,0Zm19,4.18a51.83,51.83,0,0,0,10.68,4.64c6.7,2.24,6.68,2.55,6.63,12.08H99.21l6.35-16.72Zm-55.12-4.7c-4.75-6.37-4.86-12.41.9-18l-4.15-2.29c-3.32-1.29-9.42,8.23-7.06,10.78l3.23,4.79-.67,1.39c-.18.42,0,.71.45.91l.44.12L35.17,79.75l1.7,3.63,3.41-1,.87-1.7-.84-1.57,1.85-.4.43-.83-1-1.48.63-1.23,1.84-.23.61-1.17-1-1.34.66-1.28,1.89-.31L48.78,66l.43.23c.75.46,1.14.17,1.23-.75Zm8.93,4-1.25,4.67-1.74.69L56,76.16l1.27,1.08L57,78.48l-1.72.6-.35,1.31,1.23,1.21-.24.89-1.69.76,1.13,1.33-.48,1.81-3,1.67L49.4,84.94l4.54-17-1.1-.3a.41.41,0,0,1-.3-.52L53,65.45a10.59,10.59,0,0,1,8.7-18.77,4.51,4.51,0,0,1,0,.9,4.63,4.63,0,0,1-1,2.25l-.26.3a3.78,3.78,0,0,0-3.8,5,3.24,3.24,0,0,0,.27.71,2.94,2.94,0,0,0,1.22,1.2,4,4,0,0,0,1.09.49A3.78,3.78,0,0,0,63.77,55a11.43,11.43,0,0,0,1.56-1.65,10.73,10.73,0,0,0,1.82-3.51,10.59,10.59,0,0,1-6.45,17.7l-.46,1.72a.42.42,0,0,1-.52.3l-.35-.1Z" transform="translate(0 0)"/></svg>